<svg xmlns="http://www.w3.org/2000/svg" viewBox="0 0 32 32">
  <rect width="32" height="32" rx="6" fill="#111114"/>
  <!-- extrusion (offset +2,+2) -->
  <g fill="#38383f">
    <rect x="9" y="6" width="4" height="4"/>
    <rect x="14" y="6" width="4" height="4"/>
    <rect x="19" y="6" width="4" height="4"/>
    <rect x="24" y="6" width="4" height="4"/>
    <rect x="9" y="11" width="4" height="4"/>
    <rect x="9" y="16" width="4" height="4"/>
    <rect x="14" y="16" width="4" height="4"/>
    <rect x="19" y="16" width="4" height="4"/>
    <rect x="24" y="16" width="4" height="4"/>
    <rect x="24" y="21" width="4" height="4"/>
    <rect x="9" y="26" width="4" height="4"/>
    <rect x="14" y="26" width="4" height="4"/>
    <rect x="19" y="26" width="4" height="4"/>
    <rect x="24" y="26" width="4" height="4"/>
  </g>
  <!-- face -->
  <g fill="#b8b8be">
    <rect x="7" y="4" width="4" height="4"/>
    <rect x="12" y="4" width="4" height="4"/>
    <rect x="17" y="4" width="4" height="4"/>
    <rect x="22" y="4" width="4" height="4"/>
    <rect x="7" y="9" width="4" height="4"/>
    <rect x="7" y="14" width="4" height="4"/>
    <rect x="12" y="14" width="4" height="4"/>
    <rect x="17" y="14" width="4" height="4"/>
    <rect x="22" y="14" width="4" height="4"/>
    <rect x="22" y="19" width="4" height="4"/>
    <rect x="7" y="24" width="4" height="4"/>
    <rect x="12" y="24" width="4" height="4"/>
    <rect x="17" y="24" width="4" height="4"/>
    <rect x="22" y="24" width="4" height="4"/>
  </g>
</svg>
